<?xml version="1.0" standalone="no"?>
<!DOCTYPE svg PUBLIC "-//W3C//DTD SVG 20010904//EN"
 "http://www.w3.org/TR/2001/REC-SVG-20010904/DTD/svg10.dtd">
<svg version="1.0" xmlns="http://www.w3.org/2000/svg"
 width="305.000000pt" height="78.000000pt" viewBox="0 0 305.000000 78.000000"
 preserveAspectRatio="xMidYMid meet">

<g transform="translate(0.000000,78.000000) scale(0.100000,-0.100000)"
fill="#000000" stroke="none">
<path d="M0 405 l0 -375 1515 0 1515 0 0 375 0 375 -1515 0 -1515 0 0 -375z
m2990 0 l0 -335 -1475 0 -1475 0 0 335 0 335 1475 0 1475 0 0 -335z"/>
<path d="M1236 668 c-19 -17 -31 -46 -46 -108 -12 -47 -23 -93 -26 -102 -4
-12 0 -18 10 -18 13 0 36 53 36 86 0 12 47 40 55 33 2 -3 -3 -28 -12 -57 -9
-28 -13 -55 -9 -59 9 -9 59 21 65 39 2 7 -5 5 -18 -6 -25 -23 -25 -21 -6 34
28 80 17 97 -37 59 l-30 -22 7 34 c15 68 23 79 55 79 20 0 30 5 30 15 0 23
-45 18 -74 -7z"/>
<path d="M1535 679 c-31 -15 -44 -41 -60 -120 -20 -93 -19 -106 6 -114 30 -10
65 12 84 50 30 65 9 115 -36 87 -28 -18 -29 -16 -12 33 13 39 18 45 44 45 19
0 29 5 29 15 0 17 -25 19 -55 4z m13 -142 c4 -32 -23 -87 -43 -87 -20 0 -20
52 1 91 18 35 38 34 42 -4z"/>
<path d="M2500 640 l0 -50 62 2 c51 2 63 6 66 21 2 11 -3 17 -15 18 -16 0 -16
1 2 9 18 7 19 8 3 15 -22 9 -48 0 -48 -16 0 -6 9 -13 20 -16 33 -9 22 -18 -25
-21 -39 -2 -45 1 -45 17 0 12 8 21 23 24 l22 4 -22 2 c-13 0 -23 7 -23 15 0 8
10 17 23 19 16 3 13 5 -10 6 l-33 1 0 -50z"/>
<path d="M2732 678 c-15 -15 -16 -32 -2 -23 6 4 10 -8 10 -29 0 -20 5 -36 10
-36 6 0 10 23 10 50 0 51 -6 60 -28 38z"/>
<path d="M2792 681 c-20 -13 -10 -46 15 -49 14 -2 20 -8 17 -17 -3 -8 -12 -11
-20 -8 -8 3 -14 0 -14 -6 0 -20 39 -11 51 11 l12 22 8 -22 c9 -25 31 -29 48
-8 14 16 4 46 -15 46 -8 0 -14 7 -14 15 0 9 6 12 15 9 8 -4 15 -1 15 5 0 21
-40 11 -49 -11 l-8 -22 -12 22 c-12 23 -27 27 -49 13z m31 -34 c-3 -5 -10 -4
-15 1 -6 6 -7 16 -3 22 6 9 9 9 16 -1 4 -7 5 -17 2 -22z m69 -39 c-9 -9 -12
-7 -12 12 0 19 3 21 12 12 9 -9 9 -15 0 -24z"/>
<path d="M2942 678 c-15 -15 -16 -32 -2 -23 6 4 10 -8 10 -29 0 -20 5 -36 10
-36 6 0 10 23 10 50 0 51 -6 60 -28 38z"/>
<path d="M2644 670 c-6 -6 -8 -26 -6 -45 3 -28 9 -35 26 -35 16 0 18 2 7 9 -8
5 -12 19 -9 34 6 31 -4 51 -18 37z"/>
<path d="M739 635 c-14 -7 -30 -24 -36 -38 -10 -22 -26 -27 -157 -52 -81 -15
-149 -25 -151 -23 -3 3 43 15 102 27 103 22 143 37 143 53 0 5 -92 8 -204 8
-162 0 -206 -3 -215 -14 -12 -14 -40 -236 -41 -317 0 -26 6 -51 13 -57 29 -25
180 -82 191 -73 6 5 55 23 108 41 74 24 102 38 116 58 20 27 37 72 29 72 -3 0
-51 -9 -107 -21 -123 -24 -168 -21 -55 5 145 32 167 46 189 122 6 21 5 21 -41
12 -207 -40 -308 -57 -312 -53 -2 3 0 5 5 5 29 0 309 72 322 82 8 7 23 30 32
51 15 33 18 35 23 18 9 -35 26 -24 20 13 -4 28 -1 39 20 60 15 14 33 26 41 26
12 0 11 -14 -9 -87 -13 -51 -30 -92 -41 -100 -16 -11 -12 -13 32 -12 27 1 41
3 31 6 -10 3 -16 11 -13 18 3 8 8 30 12 49 5 29 11 36 30 36 13 0 24 -6 25
-12 0 -7 5 -2 10 11 5 13 7 26 4 29 -3 3 -5 0 -5 -6 0 -7 -12 -12 -26 -12 -24
0 -25 2 -19 33 10 45 12 47 46 47 21 0 29 -5 29 -17 0 -15 2 -16 10 -3 5 8 10
18 10 23 0 13 -134 7 -161 -8z m-366 -122 c-7 -2 -19 -2 -25 0 -7 3 -2 5 12 5
14 0 19 -2 13 -5z m16 -237 c-2 -2 -22 -6 -44 -9 -28 -5 -34 -4 -20 3 19 8 73
14 64 6z"/>
<path d="M1098 621 c-13 -15 -31 -31 -39 -34 -11 -4 -10 -6 3 -6 15 -1 15 -5
2 -48 -27 -91 -14 -112 47 -76 36 21 39 37 4 21 -14 -6 -27 -9 -30 -6 -12 12
20 101 40 109 17 6 17 8 3 8 -21 1 -21 2 -8 35 12 33 7 33 -22 -3z"/>
<path d="M1816 642 c-3 -5 -8 -29 -11 -53 -5 -44 -5 -44 9 -14 22 48 28 75 17
75 -5 0 -12 -4 -15 -8z"/>
<path d="M937 579 c-38 -22 -60 -102 -35 -127 38 -38 118 23 118 90 0 43 -41
61 -83 37z m47 -15 c11 -28 6 -69 -10 -92 -28 -40 -54 -23 -54 37 0 51 49 94
64 55z"/>
<path d="M1372 583 c-20 -8 -53 -82 -50 -111 4 -37 38 -40 74 -7 23 20 24 24
7 16 -59 -29 -72 3 -15 40 41 27 51 63 17 66 -11 1 -26 -1 -33 -4z m28 -12 c0
-20 -13 -42 -30 -51 -15 -8 -17 -6 -13 13 7 26 22 47 34 47 5 0 9 -4 9 -9z"/>
<path d="M1619 572 l-22 -19 23 1 c30 1 50 -34 50 -91 0 -54 -26 -83 -75 -83
-36 0 -47 -16 -19 -27 27 -10 81 24 114 71 51 76 76 166 45 166 -10 0 -15 -10
-15 -32 0 -42 -10 -78 -21 -78 -5 0 -9 9 -9 20 0 28 -27 90 -38 90 -6 0 -20
-8 -33 -18z"/>
<path d="M1862 578 c-17 -17 -15 -44 4 -73 9 -14 14 -32 10 -40 -7 -19 -36
-20 -36 0 0 8 -7 15 -15 15 -23 0 -18 -28 6 -35 58 -19 97 31 64 81 -20 31
-13 63 10 44 17 -14 31 -8 20 9 -8 15 -48 14 -63 -1z"/>
<path d="M1365 399 c-4 -6 -5 -13 -2 -16 7 -7 27 6 27 18 0 12 -17 12 -25 -2z"/>
<path d="M2013 388 c-11 -13 -26 -40 -33 -60 -10 -34 -15 -38 -47 -38 -26 0
-34 4 -30 14 3 8 9 31 13 50 6 36 6 36 -29 36 -43 0 -89 -34 -85 -63 2 -11 9
-22 17 -25 10 -3 12 2 7 21 -7 29 14 57 45 57 24 0 24 2 -6 -96 -28 -90 -46
-114 -70 -94 -17 14 -31 8 -20 -9 8 -14 41 -14 67 0 11 6 29 31 39 55 17 38
24 44 51 44 33 0 33 -4 12 -77 -6 -21 -3 -23 32 -22 24 1 30 3 16 6 -16 3 -21
10 -18 21 3 9 13 48 22 85 9 38 25 78 34 90 15 18 20 19 34 8 18 -15 32 -9 21
8 -11 19 -51 12 -72 -11z"/>
<path d="M798 391 c-26 -4 -56 -15 -67 -25 -22 -20 -29 -56 -11 -56 6 0 10 11
10 25 0 18 7 28 27 36 14 5 29 8 33 7 13 -5 -124 -203 -147 -213 -24 -10 -31
-25 -11 -25 12 0 88 78 88 92 0 4 16 8 36 8 35 0 36 -1 31 -30 -6 -29 -6 -30
31 -29 20 1 28 4 16 6 -19 4 -20 8 -12 71 5 37 13 84 18 105 4 20 7 36 6 36 0
-1 -22 -5 -48 -8z m2 -88 c-4 -43 -8 -48 -32 -51 -16 -2 -28 0 -28 3 0 6 61
95 65 95 0 0 -2 -21 -5 -47z"/>
<path d="M1238 361 c-13 -15 -31 -31 -39 -34 -11 -4 -10 -6 3 -6 15 -1 15 -5
2 -48 -27 -91 -14 -112 47 -76 36 21 39 37 4 21 -14 -6 -27 -9 -30 -6 -12 12
20 101 40 109 17 6 17 8 3 8 -21 1 -21 2 -8 35 12 33 7 33 -22 -3z"/>
<path d="M901 310 c-13 -11 -19 -20 -14 -20 5 0 14 5 21 12 16 16 15 5 -5 -58
-9 -30 -13 -57 -10 -61 4 -3 23 1 42 10 30 14 35 15 35 2 0 -20 24 -19 47 3
10 9 13 13 6 8 -27 -18 -26 6 3 107 4 11 0 17 -10 17 -11 0 -20 -16 -28 -46
-12 -43 -50 -85 -64 -71 -4 3 1 27 10 53 9 26 16 51 16 56 0 14 -24 8 -49 -12z"/>
<path d="M1098 311 c-54 -43 -63 -131 -13 -131 13 0 37 12 52 26 l28 25 -27
-16 c-16 -10 -35 -15 -43 -11 -20 7 -19 55 1 84 13 19 22 22 46 17 23 -6 29
-4 26 6 -7 22 -42 22 -70 0z"/>
<path d="M1320 310 c-14 -10 -22 -22 -18 -26 4 -4 14 -1 22 5 13 11 13 6 0
-35 -17 -58 -18 -74 -1 -74 14 1 57 35 57 46 0 4 -9 -1 -20 -11 -20 -18 -20
-18 -5 31 26 85 16 104 -35 64z"/>
<path d="M1437 319 c-38 -22 -60 -102 -35 -127 38 -38 118 23 118 90 0 43 -41
61 -83 37z m47 -15 c11 -28 6 -69 -10 -92 -28 -40 -54 -23 -54 37 0 51 49 94
64 55z"/>
<path d="M1560 310 c-15 -12 -18 -18 -7 -14 9 3 17 5 17 3 0 -2 -7 -29 -15
-59 -8 -30 -15 -56 -15 -57 0 -2 6 -3 14 -3 14 0 43 70 51 123 5 32 -10 35
-45 7z"/>
<path d="M1630 309 l-25 -20 24 7 c19 5 23 3 18 -9 -18 -47 -29 -98 -23 -104
10 -10 58 18 64 37 2 9 -2 7 -11 -5 -23 -30 -29 -13 -12 35 28 78 15 100 -35
59z"/>
<path d="M2087 319 c-38 -22 -60 -102 -35 -127 38 -38 118 23 118 90 0 43 -41
61 -83 37z m47 -15 c11 -28 6 -69 -10 -92 -28 -40 -54 -23 -54 37 0 51 49 94
64 55z"/>
<path d="M2211 310 c-13 -11 -19 -20 -14 -20 5 0 14 5 21 12 16 16 15 5 -5
-58 -9 -30 -13 -57 -10 -61 4 -3 23 1 42 10 30 14 35 15 35 2 0 -19 20 -19 45
-1 16 11 21 11 33 0 29 -30 92 -6 92 34 0 10 -7 28 -16 40 -20 29 -11 61 11
42 17 -14 31 -8 20 9 -8 15 -48 14 -63 -1 -17 -17 -15 -44 4 -73 9 -14 14 -32
10 -40 -7 -19 -36 -20 -36 0 0 18 -31 20 -48 3 -26 -26 -24 5 4 105 4 11 0 17
-10 17 -11 0 -20 -16 -28 -46 -12 -43 -50 -85 -64 -71 -4 3 1 27 10 53 9 26
16 51 16 56 0 14 -24 8 -49 -12z"/>
<path d="M2532 323 c-20 -8 -53 -82 -50 -111 4 -37 38 -40 74 -7 23 20 24 24
7 16 -59 -29 -72 3 -15 40 41 27 51 63 17 66 -11 1 -26 -1 -33 -4z m28 -12 c0
-20 -13 -42 -30 -51 -15 -8 -17 -6 -13 13 7 26 22 47 34 47 5 0 9 -4 9 -9z"/>
<path d="M2652 318 c-17 -17 -15 -44 4 -73 9 -14 14 -32 10 -40 -7 -19 -36
-20 -36 0 0 8 -7 15 -15 15 -23 0 -18 -28 6 -35 58 -19 97 31 64 81 -20 31
-13 63 10 44 17 -14 31 -8 20 9 -8 15 -48 14 -63 -1z"/>
</g>
</svg>
